Release Title: Dragon Hunters
Release Date: 20 March 2008 (Russia)/ 5 April 2008 (USA)
Bluray Release Date:Aug 23, 2009
Release Length: 1hr 21min
Tagline: Dragon Hunting Isn't A fairy Tale 
Storyline:The adventures of two hunters for hire in a fantastic floating world that is 
terrorized by monsters.

Cast

Forest Whitaker	     ... Lian-Chu
Rob Paulsen	     ... Gwizdo
Dave Wittenberg      ... Hector
Sonja Ball	     ... Jennyline
Annie Bovaird 	     ... Zaza
Mary Matilyn Mouser  ... Zoe

Info

Genre:Animation | Action | Adventure | Fantasy | Family
Language: English, Hindi & Russian
Original Source: Dragon.Hunters.2008.720p.BDRip
Total Size: 2.43 GB 
Encoder: Harshad (HD Desi Rockers)

General
Complete name                    : Dragon Hunters [Exclusive].BRRip.720p.Triple Audio [Eng-Hindi-Rus]~Harshad.mkv
Format                           : Matroska
File size                        : 2.43 GiB
Duration                         : 1h 18mn
Overall bit rate                 : 4 411 Kbps
Encoded date                     : UTC 2011-06-15 08:38:32
Writing application              : mkvmerge v4.8.0 ('I Got The...') built on May 24 2011 03:12:58
Writing library                  : libebml v1.2.0 + libmatroska v1.1.0
Cover                            : Yes



Video
ID                               : 1
Format                           : AVC
Format/Info                      : Advanced Video Codec
Format profile                   : High@L4.1
Format settings, CABAC           : Yes
Format settings, ReFrames        : 5 frames
Muxing mode                      : Container profile=Unknown@4.1
Codec ID                         : V_MPEG4/ISO/AVC
Duration                         : 1h 18mn
Bit rate                         : 3 325 Kbps
Width                            : 1 280 pixels
Height                           : 720 pixels
Display aspect ratio             : 16:9
Frame rate                       : 25.000 fps
Color space                      : YUV
Chroma subsampling               : 4:2:0
Bit depth                        : 8 bits
Scan type                        : Progressive
Bits/(Pixel*Frame)               : 0.144
Stream size                      : 1.78 GiB (73%)
Title                            : FLHD
Writing library                  : x264 core 66 r1113M cc4f807


Audio #1
ID                               : 2
Format                           : AC-3
Format/Info                      : Audio Coding 3
Mode extension                   : CM (complete main)
Codec ID                         : A_AC3
Duration                         : 1h 18mn
Bit rate mode                    : Constant
Bit rate                         : 384 Kbps
Channel(s)                       : 2 channels
Channel positions                : Front: L R
Sampling rate                    : 48.0 KHz
Video delay                      : 12s 500ms
Stream size                      : 217 MiB (9%)
Title                            : Eng_by_Harshad



Audio #2
ID                               : 3
Format                           : MPEG Audio
Format version                   : Version 1
Format profile                   : Layer 3
Codec ID                         : A_MPEG/L3
Codec ID/Hint                    : MP3
Duration                         : 1h 18mn
Bit rate mode                    : Constant
Bit rate                         : 256 Kbps
Channel(s)                       : 2 channels
Sampling rate                    : 48.0 KHz
Stream size                      : 145 MiB (6%)
Title                            : Hindi_by_Harshad
Language                         : Hindi

[IMG]http://img248.imageshack.us/img248/6613/musicfile1.png[/IMG]
Audio #3
ID                               : 4
Format                           : AC-3
Format/Info                      : Audio Coding 3
Mode extension                   : CM (complete main)
Codec ID                         : A_AC3
Duration                         : 1h 18mn
Bit rate mode                    : Constant
Bit rate                         : 448 Kbps
Channel(s)                       : 6 channels
Channel positions                : Front: L C R, Side: L R, LFE
Sampling rate                    : 48.0 KHz
Video delay                      : 13ms
Stream size                      : 253 MiB (10%)
Title                            : AC3 5.1, 448 kbps

Screenshots
 
http://img802.imageshack.us/img802/5071/screenshotsp.jpg 
http://img857.imageshack.us/img857/9356/screenshots1.jpg 
http://img8.imageshack.us/img8/2550/screenshots2.jpg 
http://img4.imageshack.us/img4/1426/screenshots3.jpg 
http://img839.imageshack.us/img839/87/screenshots4.jpg 
http://img841.imageshack.us/img841/8841/screenshots5.jpg